<?xml version="1.0" ?>
<!-- Uploaded to: SVG Repo, www.svgrepo.com, Generator: SVG Repo Mixer Tools -->
<svg width="800px" height="800px" viewBox="0 -11.13 268.82 268.82" xmlns="http://www.w3.org/2000/svg">
<defs>
<style>.cls-1{fill:#ffc742;}.cls-2{fill:#efa536;}.cls-3,.cls-5{fill:#ffffff;}.cls-4{fill:#275563;}.cls-5{opacity:0.7;}.cls-6{fill:#908152;}.cls-7,.cls-8{fill:#d9f0ff;}.cls-7{opacity:0.5;}</style>
</defs>
<title/>
<g data-name="Layer 2" id="Layer_2">
<g data-name="Layer 1" id="Layer_1-2">
<path class="cls-1" d="M140.72,225c0,.33,0,.66,0,1a20,20,0,0,1-40,0c0-.32,0-.64,0-1s0-.82,0-1.23h0a20,20,0,0,1,40,0h0Q140.72,224.38,140.72,225Z"/>
<path class="cls-1" d="M219.4,225c0,.33,0,.66,0,1a20,20,0,0,1-40,0c0-.32,0-.64,0-1s0-.82,0-1.23h0a20,20,0,0,1,40,0h0Q219.4,224.38,219.4,225Z"/>
<path class="cls-2" d="M179.35,217.54a19.9,19.9,0,0,1,4.82-12.07h30.38a19.9,19.9,0,0,1,4.82,12.07Z"/>
<path class="cls-2" d="M100.67,217.54a19.9,19.9,0,0,1,4.82-12.07h30.38a19.9,19.9,0,0,1,4.82,12.07Z"/>
<path class="cls-3" d="M58,137.72a2.38,2.38,0,0,1-2.38-2.38v-10a2.38,2.38,0,1,1,4.76,0v10A2.38,2.38,0,0,1,58,137.72Z"/>
<path class="cls-3" d="M58,119.25a2.38,2.38,0,0,1-2.38-2.38v-5.43a2.38,2.38,0,1,1,4.76,0v5.43A2.38,2.38,0,0,1,58,119.25Z"/>
<path class="cls-1" d="M266.17,53.07,251.52,193.83a11.1,11.1,0,0,1-11,10H80.61L35.47,53.07Z"/>
<path class="cls-4" d="M120.68,246.57a24,24,0,1,1,24-24A24.06,24.06,0,0,1,120.68,246.57Zm0-40.07a16,16,0,1,0,16,16A16.06,16.06,0,0,0,120.68,206.5Z"/>
<path class="cls-4" d="M199.37,246.57a24,24,0,1,1,24-24A24.06,24.06,0,0,1,199.37,246.57Zm0-40.07a16,16,0,1,0,16,16A16.06,16.06,0,0,0,199.37,206.5Z"/>
<path class="cls-4" d="M33.51,55.49H4a4,4,0,0,1,0-8H33.51a4,4,0,0,1,0,8Z"/>
<path class="cls-4" d="M39.66,73.32H16.29a4,4,0,0,1,0-8H39.66a4,4,0,0,1,0,8Z"/>
<path class="cls-4" d="M43.34,91.15H26.13a4,4,0,0,1,0-8H43.34a4,4,0,0,1,0,8Z"/>
<path class="cls-5" d="M73.14,115.36a4,4,0,0,1-3.86-3L65.89,99.65a4,4,0,1,1,7.73-2.05L77,110.33a4,4,0,0,1-3.87,5Z"/>
<path class="cls-5" d="M64.92,86.94a4,4,0,0,1-3.86-3l-1.83-6.89A4,4,0,1,1,67,75l1.83,6.89a4,4,0,0,1-3.87,5Z"/>
<rect class="cls-2" height="10.25" width="171" x="77.91" y="188.3"/>
<path class="cls-4" d="M239.41,206.55H89.76a16.19,16.19,0,0,1-15.61-11.62L31.63,53,23.52,25.58a4,4,0,0,1,7.67-2.27L39.3,50.7,81.82,192.64a8.35,8.35,0,0,0,7.95,5.91H239.41a8.27,8.27,0,0,0,8.25-7.44L252,151a4,4,0,0,1,8,.87L255.61,192A16.25,16.25,0,0,1,239.41,206.55Z"/>
<path class="cls-4" d="M260.64,107l-.44,0a4,4,0,0,1-3.54-4.41L260.78,65a8.29,8.29,0,0,0-8.25-9.13H71.22a4,4,0,0,1,0-8H252.53a16.29,16.29,0,0,1,16.21,18l-4.12,37.61A4,4,0,0,1,260.64,107Z"/>
<ellipse class="cls-6" cx="163.98" cy="66.24" rx="49.3" ry="49.38"/>
<circle class="cls-3" cx="164.37" cy="53.88" r="49.38"/>
<path class="cls-7" d="M214.56,53.5a49.38,49.38,0,1,1-96.22-15.68c4.05,22.82,25,43.35,46.84,43.35S206.85,64.66,212,37.82A49.12,49.12,0,0,1,214.56,53.5Z"/>
<path class="cls-8" d="M214.14,52.75a49.38,49.38,0,1,1-98.77,0,50,50,0,0,1,.42-6.43,49.39,49.39,0,0,0,97.93,0A50,50,0,0,1,214.14,52.75Z"/>
<path class="cls-4" d="M163.92,106.77a53.38,53.38,0,1,1,53.38-53.38A53.45,53.45,0,0,1,163.92,106.77Zm0-98.77a45.38,45.38,0,1,0,45.38,45.39A45.44,45.44,0,0,0,163.92,8Z"/>
<circle class="cls-5" cx="77.91" cy="125.03" r="4"/>
<path class="cls-4" d="M153.08,53.41a3.22,3.22,0,0,1,.59-2,1.86,1.86,0,0,1,1.56-.8H161V44.72a2,2,0,0,1,.86-1.59,3.16,3.16,0,0,1,2-.7,3,3,0,0,1,2,.7,2.06,2.06,0,0,1,.81,1.59v5.91h5.72a2,2,0,0,1,1.56.82,2.92,2.92,0,0,1,.7,2,2.86,2.86,0,0,1-.67,2,2.05,2.05,0,0,1-1.59.77h-5.72v6a2,2,0,0,1-.78,1.62,3.27,3.27,0,0,1-2.08.61,3.41,3.41,0,0,1-2.08-.61A1.91,1.91,0,0,1,161,62.1v-6h-5.77a1.9,1.9,0,0,1-1.56-.74A3.08,3.08,0,0,1,153.08,53.41Z"/>
<path class="cls-4" d="M257.22,140.28h-.33a4,4,0,0,1-3.66-4.31l.59-7.28a4,4,0,0,1,8,.65l-.59,7.28A4,4,0,0,1,257.22,140.28Z"/>
<path class="cls-4" d="M258.84,120.35h-.33a4,4,0,0,1-3.67-4.31l0-.3a4,4,0,0,1,8,.64l0,.3A4,4,0,0,1,258.84,120.35Z"/>
</g>
</g>
</svg>